<svg width="24" height="24" viewBox="0 0 24 24" fill="none" xmlns="http://www.w3.org/2000/svg">
<path d="M12 2C6.48 2 2 6.48 2 12C2 17.52 6.48 22 12 22C17.52 22 22 17.52 22 12C22 6.48 17.52 2 12 2ZM12 20C7.59 20 4 16.41 4 12C4 7.59 7.59 4 12 4C16.41 4 20 7.59 20 12C20 16.41 16.41 20 12 20Z" fill="black"/>
<path d="M12 10C10.9 10 10 10.9 10 12C10 13.1 10.9 14 12 14C13.1 14 14 13.1 14 12C14 10.9 13.1 10 12 10Z" fill="black"/>
<path d="M16.95 7.05C16.56 6.66 16.05 6.44 15.5 6.32V4.27C17.42 4.55 19 6.08 19 8H21C21 5.79 19.21 4 17 4V2H15V4.08C13.89 3.56 12.58 3.22 11.16 3.05L12 2L10.59 3.41L3.41 10.59L2 12L3.05 11.16C3.22 12.58 3.56 13.89 4.08 15H2V17H4.27C4.55 17.42 4.9 17.77 5.29 18.05L7.34 20.1C7.89 20.56 8.56 20.84 9.27 20.95V22H11V20.73C11.42 20.45 11.77 20.1 12.05 19.71L19.71 12.05C20.1 11.77 20.45 11.42 20.73 11H22V9H20.95C20.84 8.56 20.56 7.89 20.1 7.34L18.05 5.29C17.77 4.9 17.42 4.55 17 4.27V2H15V4.32C14.44 4.44 13.94 4.66 13.55 5.05L10.5 8.1C10.19 8.41 10 8.83 10 9.28V10H8V8C8 6.08 9.58 4.55 11.73 4.27V2H13V4.05C14.11 4.57 15.42 4.91 16.84 5.08L16 6.92C15.73 6.8 15.45 6.7 15.16 6.62L16.95 7.05ZM8.95 15.05C9.34 15.44 9.85 15.66 10.4 15.78V17.83C8.48 17.55 7 16.02 7 14H5C5 16.21 6.79 18 9 18V20H11V18.08C12.11 18.56 13.42 18.9 14.84 18.73L14 16.89C14.27 17.01 14.55 17.11 14.84 17.19L13.05 16.76C13.36 16.45 13.61 16.09 13.78 15.7L10.85 12.75C11.16 12.44 11.39 12.08 11.56 11.69L14.5 14.64C14.19 14.95 14 15.37 14 15.82V16H16V14C16 12.08 14.42 10.55 12.27 10.27V12H10V10.22C9.56 10.34 9.15 10.54 8.78 10.81L8.95 15.05Z" fill="black"/>
</svg>